<?xml version="1.0" encoding="iso-8859-1"?>
<!-- Generator: Adobe Illustrator 19.0.0, SVG Export Plug-In . SVG Version: 6.00 Build 0)  -->
<svg xmlns="http://www.w3.org/2000/svg" xmlns:xlink="http://www.w3.org/1999/xlink" version="1.1" id="Layer_1" x="0px" y="0px" viewBox="0 0 512 512" style="enable-background:new 0 0 512 512;" xml:space="preserve">
<polygon style="fill:#5B5D6E;" points="281.653,367.165 179.04,367.165 170.489,444.125 290.205,444.125 "/>
<polygon style="fill:#464655;" points="285.454,401.37 281.653,367.165 179.04,367.165 175.239,401.37 "/>
<path style="fill:#FFFFFF;" d="M435.574,67.875H25.119c-9.446,0-17.102,7.656-17.102,17.102v239.432h444.66V84.977  C452.676,75.531,445.02,67.875,435.574,67.875z"/>
<path style="fill:#707487;" d="M25.119,375.716h410.455c9.446,0,17.102-7.656,17.102-17.102v-34.205H8.017v34.205  C8.017,368.06,15.673,375.716,25.119,375.716z"/>
<path style="fill:#D5DCED;" d="M367.165,444.125H247.449c-9.446,0-17.102-7.656-17.102-17.102V238.898  c0-9.446,7.656-17.102,17.102-17.102h119.716c9.446,0,17.102,7.656,17.102,17.102v188.125  C384.267,436.469,376.611,444.125,367.165,444.125z"/>
<path style="fill:#5B5D6E;" d="M486.881,290.205h-51.307c-9.446,0-17.102,7.656-17.102,17.102v119.716  c0,9.446,7.656,17.102,17.102,17.102h51.307c9.446,0,17.102-7.656,17.102-17.102V307.307  C503.983,297.861,496.327,290.205,486.881,290.205z"/>
<g>
	<rect x="230.347" y="256" style="fill:#FFFFFF;" width="153.921" height="153.921"/>
	<rect x="418.472" y="324.409" style="fill:#FFFFFF;" width="85.511" height="85.511"/>
</g>
<path d="M196.142,332.426c4.427,0,8.017-3.589,8.017-8.017c0-4.427-3.589-8.017-8.017-8.017H16.033V84.977  c0-5.01,4.076-9.086,9.086-9.086h410.455c5.01,0,9.086,4.076,9.086,9.086V256c0,4.427,3.589,8.017,8.017,8.017  c4.427,0,8.017-3.589,8.017-8.017V84.977c0-13.851-11.268-25.119-25.119-25.119H25.119C11.268,59.858,0,71.126,0,84.977v273.637  c0,13.851,11.268,25.119,25.119,25.119h144.839l-6.547,52.376h-10.025c-4.427,0-8.017,3.589-8.017,8.017  c0,4.427,3.589,8.017,8.017,8.017h42.756c4.427,0,8.017-3.589,8.017-8.017c0-4.427-3.589-8.017-8.017-8.017H179.57l6.547-52.376  h10.025c4.427,0,8.017-3.589,8.017-8.017c0-4.427-3.589-8.017-8.017-8.017H25.119c-5.01,0-9.086-4.076-9.086-9.086v-26.188H196.142z  "/>
<path d="M367.165,213.779H247.449c-13.851,0-25.119,11.268-25.119,25.119v188.125c0,13.851,11.268,25.119,25.119,25.119h119.716  c13.851,0,25.119-11.268,25.119-25.119V238.898C392.284,225.047,381.016,213.779,367.165,213.779z M238.363,264.017h137.887v137.887  H238.363V264.017z M247.449,229.812h119.716c5.01,0,9.086,4.076,9.086,9.086v9.086H238.363v-9.086  C238.363,233.888,242.439,229.812,247.449,229.812z M367.165,436.109H247.449c-5.01,0-9.086-4.076-9.086-9.086v-9.086h137.887v9.086  C376.251,432.033,372.175,436.109,367.165,436.109z"/>
<path d="M486.881,282.188h-51.307c-13.851,0-25.119,11.268-25.119,25.119v119.716c0,13.851,11.268,25.119,25.119,25.119h51.307  c13.851,0,25.119-11.268,25.119-25.119V307.307C512,293.456,500.732,282.188,486.881,282.188z M426.489,332.426h69.478v69.478  h-69.478V332.426z M435.574,298.221h51.307c5.01,0,9.086,4.076,9.086,9.086v9.086h-69.478v-9.086  C426.489,302.297,430.564,298.221,435.574,298.221z M486.881,436.109h-51.307c-5.01,0-9.086-4.076-9.086-9.086v-9.086h69.478v9.086  C495.967,432.033,491.891,436.109,486.881,436.109z"/>
<g>
</g>
<g>
</g>
<g>
</g>
<g>
</g>
<g>
</g>
<g>
</g>
<g>
</g>
<g>
</g>
<g>
</g>
<g>
</g>
<g>
</g>
<g>
</g>
<g>
</g>
<g>
</g>
<g>
</g>
</svg>
